<svg xmlns="http://www.w3.org/2000/svg" viewBox="0 0 40 40" width="40" height="40">
  <rect width="40" height="40" rx="12" fill="#4f46e5"/>
  <g transform="translate(8, 8)" stroke="white" stroke-width="2" fill="none" stroke-linecap="round" stroke-linejoin="round">
    <path d="M10 14.66v1.626a2 2 0 0 1-.976 1.696A5 5 0 0 0 7 21.978"></path>
    <path d="M14 14.66v1.626a2 2 0 0 0 .976 1.696A5 5 0 0 1 17 21.978"></path>
    <path d="M18 9h1.5a1 1 0 0 0 0-5H18"></path>
    <path d="M4 22h16"></path>
    <path d="M6 9a6 6 0 0 0 12 0V3a1 1 0 0 0-1-1H7a1 1 0 0 0-1 1z"></path>
    <path d="M6 9H4.5a1 1 0 0 1 0-5H6"></path>
  </g>
</svg>
